<?xml version="1.0" encoding="utf-8"?>
<!-- Generator: Adobe Illustrator 24.2.3, SVG Export Plug-In . SVG Version: 6.00 Build 0)  -->
<svg version="1.1" id="Laag_1" xmlns="http://www.w3.org/2000/svg" xmlns:xlink="http://www.w3.org/1999/xlink" x="0px" y="0px"
	 viewBox="0 0 100 125" style="enable-background:new 0 0 100 125;" xml:space="preserve">
<path d="M48,108.6c0,0-33.7,0.1-33.7-26.5s29.9-33.9,29.9-54.6c0-5.7-1.6-8.2-5.1-11.4C55,16.4,67.7,31.1,67.7,52.1
	c0,4.1-1.6,12.8-3.7,14.7c-2.1,1.8,12.9-8.2,12.9-17.1c0,0,10.1,8.8,10.1,28s-22.3,32.7-32.8,32.7c6.7-6.2,11.2-12,11.2-18.9
	c0-13.9-12.6-12.7-15.7-19.7c-0.3-0.5-0.4-1-0.4-1.5c-0.3-1.9,0.3-3.8,1.4-5.3l3.4-4.6c0,0-19.6,5.2-19.6,24.6S44.9,105.5,48,108.6z
	"/>
</svg>
